<?xml version="1.0" encoding="utf-8"?>
<!-- Generator: Adobe Illustrator 25.3.0, SVG Export Plug-In . SVG Version: 6.00 Build 0)  -->
<svg version="1.1" id="Ebene_1" xmlns="http://www.w3.org/2000/svg" xmlns:xlink="http://www.w3.org/1999/xlink" x="0px" y="0px"
	 viewBox="0 0 357.6 127.2" style="enable-background:new 0 0 357.6 127.2;" xml:space="preserve">
<style type="text/css">
	.st0{fill:#0014E6;}
	.st1{fill:#7DE1C3;}
</style>
<g>
	<path class="st0" d="M276.4,50.8c-12.4,0-22.5,10.1-22.5,22.5s10.1,22.5,22.5,22.5c12.4,0,22.5-10.1,22.5-22.5
		S288.9,50.8,276.4,50.8z M276.4,85.5c-6.7,0-12.2-5.5-12.2-12.2s5.5-12.2,12.2-12.2c6.7,0,12.2,5.5,12.2,12.2
		S283.1,85.5,276.4,85.5z"/>
	<path class="st0" d="M109.5,50.8c-12.4,0-22.5,10.1-22.5,22.5S97,95.9,109.5,95.9S132,85.8,132,73.3S122,50.8,109.5,50.8z
		 M109.5,85.5c-6.7,0-12.2-5.5-12.2-12.2s5.5-12.2,12.2-12.2s12.2,5.5,12.2,12.2S116.2,85.5,109.5,85.5z"/>
	<path class="st0" d="M51.2,73.3v-42H40.7v23c-3.5-2.2-7.7-3.5-12.2-3.5C16.1,50.8,6,60.9,6,73.3s10.1,22.5,22.5,22.5
		S51.2,85.8,51.2,73.3L51.2,73.3z M28.7,85.5c-6.7,0-12.2-5.5-12.2-12.2S22,61.2,28.7,61.2s12.2,5.5,12.2,12.2S35.4,85.5,28.7,85.5z
		"/>
	<path class="st0" d="M203.9,31.3h-10.5v23c-3.5-2.2-7.7-3.5-12.2-3.5c-12.4,0-22.5,10.1-22.5,22.5s10.1,22.5,22.5,22.5
		s22.5-10.1,22.5-22.5l0,0v-42H203.9z M181.3,85.5c-6.7,0-12.2-5.5-12.2-12.2s5.5-12.2,12.2-12.2c6.7,0,12.2,5.5,12.2,12.2
		C193.4,80,188,85.5,181.3,85.5z"/>
	<rect x="140" y="50.8" class="st0" width="10.5" height="45.2"/>
	<path class="st0" d="M59.3,73.3L59.3,73.3v22.5h10.5V73.3c0-6.7,5.5-12.2,12.2-12.2V50.7C69.4,50.8,59.3,60.9,59.3,73.3z"/>
	<path class="st0" d="M241.4,81.9c-2.2,2.2-5.2,3.5-8.5,3.5c-6.7,0-12.2-5.5-12.2-12.2S226.2,61,232.9,61c3.4,0,6.3,1.3,8.5,3.5
		l7.4-7.4c-4.1-4.1-9.7-6.6-16-6.6c-12.4,0-22.5,10.1-22.5,22.5s10.1,22.5,22.5,22.5c6.2,0,11.9-2.6,16-6.6L241.4,81.9z"/>
	<path class="st0" d="M328.9,50.8c-12.4,0-22.5,10.1-22.5,22.5l0,0v22.5h10.5V73.3l0,0c0-6.7,5.5-12.2,12.2-12.2
		c6.7,0,12.2,5.5,12.2,12.2l0,0v22.5h10.5V73.3l0,0C351.5,60.9,341.3,50.8,328.9,50.8z"/>
	<circle class="st1" cx="109.5" cy="73.3" r="5.8"/>
</g>
</svg>
